<?xml version="1.0" encoding="UTF-8" standalone="no"?>
<svg
   xmlns:dc="http://purl.org/dc/elements/1.1/"
   xmlns:cc="http://creativecommons.org/ns#"
   xmlns:rdf="http://www.w3.org/1999/02/22-rdf-syntax-ns#"
   xmlns:svg="http://www.w3.org/2000/svg"
   xmlns="http://www.w3.org/2000/svg"
   xmlns:sodipodi="http://sodipodi.sourceforge.net/DTD/sodipodi-0.dtd"
   xmlns:inkscape="http://www.inkscape.org/namespaces/inkscape"
   width="117"
   height="25"
   version="1.1"
   id="svg8"
   sodipodi:docname="bet365-logo.svg"
   inkscape:version="0.92.2 (5c3e80d, 2017-08-06)">
  <metadata
     id="metadata14">
    <rdf:RDF>
      <cc:Work
         rdf:about="">
        <dc:format>image/svg+xml</dc:format>
        <dc:type
           rdf:resource="http://purl.org/dc/dcmitype/StillImage" />
      </cc:Work>
    </rdf:RDF>
  </metadata>
  <defs
     id="defs12" />
  <sodipodi:namedview
     pagecolor="#ffffff"
     bordercolor="#666666"
     borderopacity="1"
     objecttolerance="10"
     gridtolerance="10"
     guidetolerance="10"
     inkscape:pageopacity="0"
     inkscape:pageshadow="2"
     inkscape:window-width="1600"
     inkscape:window-height="837"
     id="namedview10"
     showgrid="false"
     inkscape:zoom="3.8316726"
     inkscape:cx="18.97195"
     inkscape:cy="62.75195"
     inkscape:window-x="-8"
     inkscape:window-y="-8"
     inkscape:window-maximized="1"
     inkscape:current-layer="svg8" />
  <g
     fill="none"
     fill-rule="evenodd"
     id="g6"
     inkscape:export-filename="G:\Users\suitedoalex\sites\bet365-logo--7.png"
     inkscape:export-xdpi="41.092724"
     inkscape:export-ydpi="41.092724">
    <path
       d="M64.416 19.723c2.16 0 3.287-.713 3.287-2.203 0-1.458-1.162-2.266-3.417-2.266-.836 0-1.835.065-2.93.227v-4.92c.9.1 1.74.13 2.577.13 2.32 0 3.478-.68 3.478-2.23 0-1.52-1.06-2.23-3.25-2.23-1.42 0-3.22.39-5.44 1.07V2.17c1.97-.682 4.35-1.004 7.15-1.004 6.09 0 9.6 2.622 9.6 6.736 0 2.526-1.64 4.37-4.51 4.987 3.19.65 4.83 2.43 4.83 5.15 0 4.27-3.57 6.76-10.4 6.76-2.29 0-4.54-.32-6.86-.87v-5.28c2.29.68 4.22 1.07 5.9 1.07zM89.83 9.587c4.8 0 7.988 2.946 7.988 7.285 0 4.664-3.64 7.902-9.373 7.902-6.764 0-11.114-4.242-11.114-11.203 0-7.93 4.61-12.4 12.92-12.4 1.78 0 3.68.2 5.64.62v5.15c-1.8-.55-3.54-.81-5.38-.81-3.67 0-5.38 1.49-5.47 4.86 1.36-1.03 2.84-1.39 4.8-1.39zm.676 7.126c0-1.88-1.062-3.08-2.608-3.08s-2.578 1.166-2.578 3.08c0 1.876 1.032 3.042 2.578 3.042 1.578 0 2.608-1.166 2.608-3.042zm9.697-14.963h15.686v5.376h-8.35v3.4c.67-.033 1.13-.065 1.28-.065 5.18 0 7.99 2.63 7.99 7.06 0 4.57-3.42 7.29-10.08 7.29-2.32 0-4.61-.35-6.93-.93v-5.12c1.77.49 3.32.72 4.64.72 2.7 0 4.12-.91 4.12-2.59 0-1.872-1.48-2.812-4.51-2.812-1.29 0-2.547.227-3.868.55V1.75z"
       fill="#FFE418"
       id="path2" />
    <path
       d="M0 0h7.95v9.543c1.13-1.552 2.68-2.278 4.78-2.278 4.622 0 7.24 3.235 7.24 8.982 0 5.483-2.65 8.753-7.045 8.753-2.682 0-4.492-.99-5.525-3.104v2.872H0V0zm7.722 16.08c0 2.513.55 3.734 1.972 3.734 1.39 0 2.003-1.22 2.003-3.733 0-2.5-.582-3.73-2.003-3.73-1.422 0-1.972 1.23-1.972 3.73zm32.57 1.59H29.276c.193 1.853 1.616 2.73 4.297 2.73 1.874 0 3.813-.357 5.685-1.072v4.32c-1.84.747-4.36 1.17-7.3 1.17-6.786 0-10.437-3.248-10.437-8.965 0-5.588 3.59-8.933 9.57-8.933 6.63 0 9.21 3.085 9.21 9.648v1.103zm-6.914-3.28v-.52c0-1.917-.71-3.02-2.068-3.02-1.39 0-2.1 1.103-2.1 3.053v.486h4.168zM56 7.374v4.97h-3.707v4.06c0 2.08.327 3.055 1.918 3.055.43 0 1.01-.07 1.69-.23v4.87c-1.72.52-3.44.71-5.26.71-2.24 0-3.96-.72-4.97-1.95-1.3-1.63-1.33-3.67-1.33-6.4v-4.12H41.5V7.37h2.83V3.606l7.963-2.502v6.27H56z"
       fill="#FFF"
       id="path4"
       style="fill:#14805e;fill-opacity:1" />
  </g>
  <rect
     style="fill:#14805e;fill-opacity:1;fill-rule:evenodd"
     id="rect855"
     width="160.92114"
     height="80.460571"
     x="-22.18989"
     y="-92.113144"
     inkscape:export-filename="G:\Users\suitedoalex\sites\bet365-logo-7.png"
     inkscape:export-xdpi="29.828274"
     inkscape:export-ydpi="29.828274" />
  <g
     style="fill:none;fill-rule:evenodd"
     id="g6-3-0"
     transform="translate(-0.21569267,-65.318695)"
     inkscape:export-filename="G:\Users\suitedoalex\sites\bet365-logo-7.png"
     inkscape:export-xdpi="29.828274"
     inkscape:export-ydpi="29.828274">
    <path
       style="fill:#ffe418"
       inkscape:connector-curvature="0"
       d="m 64.416,19.723 c 2.16,0 3.287,-0.713 3.287,-2.203 0,-1.458 -1.162,-2.266 -3.417,-2.266 -0.836,0 -1.835,0.065 -2.93,0.227 v -4.92 c 0.9,0.1 1.74,0.13 2.577,0.13 2.32,0 3.478,-0.68 3.478,-2.23 0,-1.52 -1.06,-2.23 -3.25,-2.23 -1.42,0 -3.22,0.39 -5.44,1.07 V 2.17 c 1.97,-0.682 4.35,-1.004 7.15,-1.004 6.09,0 9.6,2.622 9.6,6.736 0,2.526 -1.64,4.37 -4.51,4.987 3.19,0.65 4.83,2.43 4.83,5.15 0,4.27 -3.57,6.76 -10.4,6.76 -2.29,0 -4.54,-0.32 -6.86,-0.87 v -5.28 c 2.29,0.68 4.22,1.07 5.9,1.07 z M 89.83,9.587 c 4.8,0 7.988,2.946 7.988,7.285 0,4.664 -3.64,7.902 -9.373,7.902 -6.764,0 -11.114,-4.242 -11.114,-11.203 0,-7.93 4.61,-12.4 12.92,-12.4 1.78,0 3.68,0.2 5.64,0.62 v 5.15 c -1.8,-0.55 -3.54,-0.81 -5.38,-0.81 -3.67,0 -5.38,1.49 -5.47,4.86 1.36,-1.03 2.84,-1.39 4.8,-1.39 z m 0.676,7.126 c 0,-1.88 -1.062,-3.08 -2.608,-3.08 -1.546,0 -2.578,1.166 -2.578,3.08 0,1.876 1.032,3.042 2.578,3.042 1.578,0 2.608,-1.166 2.608,-3.042 z M 100.203,1.75 h 15.686 v 5.376 h -8.35 v 3.4 c 0.67,-0.033 1.13,-0.065 1.28,-0.065 5.18,0 7.99,2.63 7.99,7.06 0,4.57 -3.42,7.29 -10.08,7.29 -2.32,0 -4.61,-0.35 -6.93,-0.93 v -5.12 c 1.77,0.49 3.32,0.72 4.64,0.72 2.7,0 4.12,-0.91 4.12,-2.59 0,-1.872 -1.48,-2.812 -4.51,-2.812 -1.29,0 -2.547,0.227 -3.868,0.55 V 1.75 Z"
       id="path2-2-6" />
    <path
       inkscape:connector-curvature="0"
       d="m 0,0 h 7.95 v 9.543 c 1.13,-1.552 2.68,-2.278 4.78,-2.278 4.622,0 7.24,3.235 7.24,8.982 C 19.97,21.73 17.32,25 12.925,25 10.243,25 8.433,24.01 7.4,21.896 v 2.872 H 0 Z m 7.722,16.08 c 0,2.513 0.55,3.734 1.972,3.734 1.39,0 2.003,-1.22 2.003,-3.733 0,-2.5 -0.582,-3.73 -2.003,-3.73 -1.422,0 -1.972,1.23 -1.972,3.73 z m 32.57,1.59 H 29.276 c 0.193,1.853 1.616,2.73 4.297,2.73 1.874,0 3.813,-0.357 5.685,-1.072 v 4.32 c -1.84,0.747 -4.36,1.17 -7.3,1.17 -6.786,0 -10.437,-3.248 -10.437,-8.965 0,-5.588 3.59,-8.933 9.57,-8.933 6.63,0 9.21,3.085 9.21,9.648 v 1.103 z m -6.914,-3.28 v -0.52 c 0,-1.917 -0.71,-3.02 -2.068,-3.02 -1.39,0 -2.1,1.103 -2.1,3.053 v 0.486 h 4.168 z M 56,7.374 v 4.97 h -3.707 v 4.06 c 0,2.08 0.327,3.055 1.918,3.055 0.43,0 1.01,-0.07 1.69,-0.23 v 4.87 c -1.72,0.52 -3.44,0.71 -5.26,0.71 -2.24,0 -3.96,-0.72 -4.97,-1.95 -1.3,-1.63 -1.33,-3.67 -1.33,-6.4 v -4.12 H 41.5 V 7.37 h 2.83 V 3.606 l 7.963,-2.502 v 6.27 z"
       id="path4-9-9"
       style="fill:#ffffff;fill-opacity:1" />
  </g>
</svg>
